<svg width="1200" height="720" viewBox="0 0 1200 720" fill="none" xmlns="http://www.w3.org/2000/svg">
  <rect width="1200" height="720" rx="40" fill="#F7FAFF"/>
  <rect x="80" y="120" width="280" height="140" rx="28" fill="#E9F1FF" stroke="#B8C8E8" stroke-width="4"/>
  <text x="220" y="185" text-anchor="middle" fill="#163C82" font-size="36" font-family="Segoe UI, sans-serif" font-weight="700">Obsidian</text>
  <text x="220" y="225" text-anchor="middle" fill="#4D6181" font-size="24" font-family="Segoe UI, sans-serif">publish/ folder</text>
  <rect x="460" y="120" width="280" height="140" rx="28" fill="#FFFFFF" stroke="#C6D4EA" stroke-width="4"/>
  <text x="600" y="185" text-anchor="middle" fill="#102033" font-size="36" font-family="Segoe UI, sans-serif" font-weight="700">sync script</text>
  <text x="600" y="225" text-anchor="middle" fill="#5B6A80" font-size="24" font-family="Segoe UI, sans-serif">copy notes + assets</text>
  <rect x="840" y="120" width="280" height="140" rx="28" fill="#EDF8F2" stroke="#B9D9C8" stroke-width="4"/>
  <text x="980" y="185" text-anchor="middle" fill="#1C6B43" font-size="36" font-family="Segoe UI, sans-serif" font-weight="700">repo content</text>
  <text x="980" y="225" text-anchor="middle" fill="#577465" font-size="24" font-family="Segoe UI, sans-serif">content/notes + static/notes</text>
  <rect x="285" y="430" width="630" height="170" rx="34" fill="#FFFFFF" stroke="#C6D4EA" stroke-width="4"/>
  <text x="600" y="495" text-anchor="middle" fill="#102033" font-size="38" font-family="Segoe UI, sans-serif" font-weight="700">Streamlit website</text>
  <text x="600" y="545" text-anchor="middle" fill="#5B6A80" font-size="26" font-family="Segoe UI, sans-serif">home + portfolio + notes detail</text>
  <text x="600" y="585" text-anchor="middle" fill="#5B6A80" font-size="26" font-family="Segoe UI, sans-serif">wikilinks + inline assets rendered safely</text>
  <path d="M360 190H460" stroke="#7D92B2" stroke-width="10" stroke-linecap="round"/>
  <path d="M740 190H840" stroke="#7D92B2" stroke-width="10" stroke-linecap="round"/>
  <path d="M600 260V430" stroke="#7D92B2" stroke-width="10" stroke-linecap="round"/>
  <path d="M600 430L580 400" stroke="#7D92B2" stroke-width="10" stroke-linecap="round"/>
  <path d="M600 430L620 400" stroke="#7D92B2" stroke-width="10" stroke-linecap="round"/>
</svg>
